<mxfile host="app.diagrams.net" modified="2021-11-15T08:40:55.274Z" agent="5.0 (Windows)" etag="DfybBDaNHD-FexeMG7SE" version="15.7.3" type="github">
  <diagram id="CYisWfvAyYM-VxBqKDDA" name="Page-1">
    <mxGraphModel dx="3685" dy="1074" grid="1" gridSize="10" guides="1" tooltips="1" connect="1" arrows="1" fold="1" page="1" pageScale="2" pageWidth="827" pageHeight="1169" math="0" shadow="0">
      <root>
        <mxCell id="0" />
        <mxCell id="1" parent="0" />
        <mxCell id="7VKG7t0zg39iDgbiG4sM-1" value="" style="whiteSpace=wrap;html=1;aspect=fixed;fillColor=#dae8fc;strokeColor=#6c8ebf;" vertex="1" parent="1">
          <mxGeometry x="-1200" y="240" width="40" height="40" as="geometry" />
        </mxCell>
        <mxCell id="7VKG7t0zg39iDgbiG4sM-2" value="" style="whiteSpace=wrap;html=1;aspect=fixed;fillColor=#dae8fc;strokeColor=#6c8ebf;" vertex="1" parent="1">
          <mxGeometry x="-1160" y="240" width="40" height="40" as="geometry" />
        </mxCell>
        <mxCell id="7VKG7t0zg39iDgbiG4sM-3" value="" style="whiteSpace=wrap;html=1;aspect=fixed;fillColor=#dae8fc;strokeColor=#6c8ebf;" vertex="1" parent="1">
          <mxGeometry x="-1120" y="240" width="40" height="40" as="geometry" />
        </mxCell>
        <mxCell id="7VKG7t0zg39iDgbiG4sM-4" value="" style="whiteSpace=wrap;html=1;aspect=fixed;fillColor=#dae8fc;strokeColor=#6c8ebf;" vertex="1" parent="1">
          <mxGeometry x="-1080" y="240" width="40" height="40" as="geometry" />
        </mxCell>
        <mxCell id="7VKG7t0zg39iDgbiG4sM-5" value="" style="whiteSpace=wrap;html=1;aspect=fixed;fillColor=#dae8fc;strokeColor=#6c8ebf;" vertex="1" parent="1">
          <mxGeometry x="-1200" y="280" width="40" height="40" as="geometry" />
        </mxCell>
        <mxCell id="7VKG7t0zg39iDgbiG4sM-6" value="" style="whiteSpace=wrap;html=1;aspect=fixed;fillColor=#dae8fc;strokeColor=#6c8ebf;" vertex="1" parent="1">
          <mxGeometry x="-1160" y="280" width="40" height="40" as="geometry" />
        </mxCell>
        <mxCell id="7VKG7t0zg39iDgbiG4sM-7" value="" style="whiteSpace=wrap;html=1;aspect=fixed;fillColor=#dae8fc;strokeColor=#6c8ebf;" vertex="1" parent="1">
          <mxGeometry x="-1120" y="280" width="40" height="40" as="geometry" />
        </mxCell>
        <mxCell id="7VKG7t0zg39iDgbiG4sM-8" value="" style="whiteSpace=wrap;html=1;aspect=fixed;fillColor=#dae8fc;strokeColor=#6c8ebf;" vertex="1" parent="1">
          <mxGeometry x="-1080" y="280" width="40" height="40" as="geometry" />
        </mxCell>
        <mxCell id="7VKG7t0zg39iDgbiG4sM-9" value="" style="whiteSpace=wrap;html=1;aspect=fixed;fillColor=#dae8fc;strokeColor=#6c8ebf;" vertex="1" parent="1">
          <mxGeometry x="-1200" y="320" width="40" height="40" as="geometry" />
        </mxCell>
        <mxCell id="7VKG7t0zg39iDgbiG4sM-10" value="" style="whiteSpace=wrap;html=1;aspect=fixed;fillColor=#dae8fc;strokeColor=#6c8ebf;" vertex="1" parent="1">
          <mxGeometry x="-1160" y="320" width="40" height="40" as="geometry" />
        </mxCell>
        <mxCell id="7VKG7t0zg39iDgbiG4sM-11" value="" style="whiteSpace=wrap;html=1;aspect=fixed;fillColor=#dae8fc;strokeColor=#6c8ebf;" vertex="1" parent="1">
          <mxGeometry x="-1120" y="320" width="40" height="40" as="geometry" />
        </mxCell>
        <mxCell id="7VKG7t0zg39iDgbiG4sM-12" value="" style="whiteSpace=wrap;html=1;aspect=fixed;fillColor=#dae8fc;strokeColor=#6c8ebf;" vertex="1" parent="1">
          <mxGeometry x="-1080" y="320" width="40" height="40" as="geometry" />
        </mxCell>
        <mxCell id="7VKG7t0zg39iDgbiG4sM-13" value="" style="whiteSpace=wrap;html=1;aspect=fixed;fillColor=#dae8fc;strokeColor=#6c8ebf;" vertex="1" parent="1">
          <mxGeometry x="-1200" y="360" width="40" height="40" as="geometry" />
        </mxCell>
        <mxCell id="7VKG7t0zg39iDgbiG4sM-14" value="" style="whiteSpace=wrap;html=1;aspect=fixed;fillColor=#dae8fc;strokeColor=#6c8ebf;" vertex="1" parent="1">
          <mxGeometry x="-1160" y="360" width="40" height="40" as="geometry" />
        </mxCell>
        <mxCell id="7VKG7t0zg39iDgbiG4sM-15" value="" style="whiteSpace=wrap;html=1;aspect=fixed;fillColor=#dae8fc;strokeColor=#6c8ebf;" vertex="1" parent="1">
          <mxGeometry x="-1120" y="360" width="40" height="40" as="geometry" />
        </mxCell>
        <mxCell id="7VKG7t0zg39iDgbiG4sM-16" value="" style="whiteSpace=wrap;html=1;aspect=fixed;fillColor=#dae8fc;strokeColor=#6c8ebf;" vertex="1" parent="1">
          <mxGeometry x="-1080" y="360" width="40" height="40" as="geometry" />
        </mxCell>
        <mxCell id="7VKG7t0zg39iDgbiG4sM-17" value="" style="whiteSpace=wrap;html=1;aspect=fixed;fillColor=#d5e8d4;strokeColor=#82b366;" vertex="1" parent="1">
          <mxGeometry x="-1190" y="250" width="40" height="40" as="geometry" />
        </mxCell>
        <mxCell id="7VKG7t0zg39iDgbiG4sM-18" value="" style="whiteSpace=wrap;html=1;aspect=fixed;fillColor=#d5e8d4;strokeColor=#82b366;" vertex="1" parent="1">
          <mxGeometry x="-1150" y="250" width="40" height="40" as="geometry" />
        </mxCell>
        <mxCell id="7VKG7t0zg39iDgbiG4sM-19" value="" style="whiteSpace=wrap;html=1;aspect=fixed;fillColor=#d5e8d4;strokeColor=#82b366;" vertex="1" parent="1">
          <mxGeometry x="-1110" y="250" width="40" height="40" as="geometry" />
        </mxCell>
        <mxCell id="7VKG7t0zg39iDgbiG4sM-20" value="" style="whiteSpace=wrap;html=1;aspect=fixed;fillColor=#d5e8d4;strokeColor=#82b366;" vertex="1" parent="1">
          <mxGeometry x="-1070" y="250" width="40" height="40" as="geometry" />
        </mxCell>
        <mxCell id="7VKG7t0zg39iDgbiG4sM-21" value="" style="whiteSpace=wrap;html=1;aspect=fixed;fillColor=#d5e8d4;strokeColor=#82b366;" vertex="1" parent="1">
          <mxGeometry x="-1190" y="290" width="40" height="40" as="geometry" />
        </mxCell>
        <mxCell id="7VKG7t0zg39iDgbiG4sM-22" value="" style="whiteSpace=wrap;html=1;aspect=fixed;fillColor=#d5e8d4;strokeColor=#82b366;" vertex="1" parent="1">
          <mxGeometry x="-1150" y="290" width="40" height="40" as="geometry" />
        </mxCell>
        <mxCell id="7VKG7t0zg39iDgbiG4sM-23" value="" style="whiteSpace=wrap;html=1;aspect=fixed;fillColor=#d5e8d4;strokeColor=#82b366;" vertex="1" parent="1">
          <mxGeometry x="-1110" y="290" width="40" height="40" as="geometry" />
        </mxCell>
        <mxCell id="7VKG7t0zg39iDgbiG4sM-24" value="" style="whiteSpace=wrap;html=1;aspect=fixed;fillColor=#d5e8d4;strokeColor=#82b366;" vertex="1" parent="1">
          <mxGeometry x="-1070" y="290" width="40" height="40" as="geometry" />
        </mxCell>
        <mxCell id="7VKG7t0zg39iDgbiG4sM-25" value="" style="whiteSpace=wrap;html=1;aspect=fixed;fillColor=#d5e8d4;strokeColor=#82b366;" vertex="1" parent="1">
          <mxGeometry x="-1190" y="330" width="40" height="40" as="geometry" />
        </mxCell>
        <mxCell id="7VKG7t0zg39iDgbiG4sM-26" value="" style="whiteSpace=wrap;html=1;aspect=fixed;fillColor=#d5e8d4;strokeColor=#82b366;" vertex="1" parent="1">
          <mxGeometry x="-1150" y="330" width="40" height="40" as="geometry" />
        </mxCell>
        <mxCell id="7VKG7t0zg39iDgbiG4sM-27" value="" style="whiteSpace=wrap;html=1;aspect=fixed;fillColor=#d5e8d4;strokeColor=#82b366;" vertex="1" parent="1">
          <mxGeometry x="-1110" y="330" width="40" height="40" as="geometry" />
        </mxCell>
        <mxCell id="7VKG7t0zg39iDgbiG4sM-28" value="" style="whiteSpace=wrap;html=1;aspect=fixed;fillColor=#d5e8d4;strokeColor=#82b366;" vertex="1" parent="1">
          <mxGeometry x="-1070" y="330" width="40" height="40" as="geometry" />
        </mxCell>
        <mxCell id="7VKG7t0zg39iDgbiG4sM-29" value="" style="whiteSpace=wrap;html=1;aspect=fixed;fillColor=#d5e8d4;strokeColor=#82b366;" vertex="1" parent="1">
          <mxGeometry x="-1190" y="370" width="40" height="40" as="geometry" />
        </mxCell>
        <mxCell id="7VKG7t0zg39iDgbiG4sM-30" value="" style="whiteSpace=wrap;html=1;aspect=fixed;fillColor=#d5e8d4;strokeColor=#82b366;" vertex="1" parent="1">
          <mxGeometry x="-1150" y="370" width="40" height="40" as="geometry" />
        </mxCell>
        <mxCell id="7VKG7t0zg39iDgbiG4sM-31" value="" style="whiteSpace=wrap;html=1;aspect=fixed;fillColor=#d5e8d4;strokeColor=#82b366;" vertex="1" parent="1">
          <mxGeometry x="-1110" y="370" width="40" height="40" as="geometry" />
        </mxCell>
        <mxCell id="7VKG7t0zg39iDgbiG4sM-32" value="" style="whiteSpace=wrap;html=1;aspect=fixed;fillColor=#d5e8d4;strokeColor=#82b366;" vertex="1" parent="1">
          <mxGeometry x="-1070" y="370" width="40" height="40" as="geometry" />
        </mxCell>
        <mxCell id="7VKG7t0zg39iDgbiG4sM-33" value="" style="whiteSpace=wrap;html=1;aspect=fixed;fillColor=#ffe6cc;strokeColor=#d79b00;" vertex="1" parent="1">
          <mxGeometry x="-1180" y="260" width="40" height="40" as="geometry" />
        </mxCell>
        <mxCell id="7VKG7t0zg39iDgbiG4sM-34" value="" style="whiteSpace=wrap;html=1;aspect=fixed;fillColor=#ffe6cc;strokeColor=#d79b00;" vertex="1" parent="1">
          <mxGeometry x="-1140" y="260" width="40" height="40" as="geometry" />
        </mxCell>
        <mxCell id="7VKG7t0zg39iDgbiG4sM-35" value="" style="whiteSpace=wrap;html=1;aspect=fixed;fillColor=#ffe6cc;strokeColor=#d79b00;" vertex="1" parent="1">
          <mxGeometry x="-1100" y="260" width="40" height="40" as="geometry" />
        </mxCell>
        <mxCell id="7VKG7t0zg39iDgbiG4sM-36" value="" style="whiteSpace=wrap;html=1;aspect=fixed;fillColor=#ffe6cc;strokeColor=#d79b00;" vertex="1" parent="1">
          <mxGeometry x="-1060" y="260" width="40" height="40" as="geometry" />
        </mxCell>
        <mxCell id="7VKG7t0zg39iDgbiG4sM-37" value="" style="whiteSpace=wrap;html=1;aspect=fixed;fillColor=#ffe6cc;strokeColor=#d79b00;" vertex="1" parent="1">
          <mxGeometry x="-1180" y="300" width="40" height="40" as="geometry" />
        </mxCell>
        <mxCell id="7VKG7t0zg39iDgbiG4sM-38" value="" style="whiteSpace=wrap;html=1;aspect=fixed;fillColor=#ffe6cc;strokeColor=#d79b00;" vertex="1" parent="1">
          <mxGeometry x="-1140" y="300" width="40" height="40" as="geometry" />
        </mxCell>
        <mxCell id="7VKG7t0zg39iDgbiG4sM-39" value="" style="whiteSpace=wrap;html=1;aspect=fixed;fillColor=#ffe6cc;strokeColor=#d79b00;" vertex="1" parent="1">
          <mxGeometry x="-1100" y="300" width="40" height="40" as="geometry" />
        </mxCell>
        <mxCell id="7VKG7t0zg39iDgbiG4sM-40" value="" style="whiteSpace=wrap;html=1;aspect=fixed;fillColor=#ffe6cc;strokeColor=#d79b00;" vertex="1" parent="1">
          <mxGeometry x="-1060" y="300" width="40" height="40" as="geometry" />
        </mxCell>
        <mxCell id="7VKG7t0zg39iDgbiG4sM-41" value="" style="whiteSpace=wrap;html=1;aspect=fixed;fillColor=#ffe6cc;strokeColor=#d79b00;" vertex="1" parent="1">
          <mxGeometry x="-1180" y="340" width="40" height="40" as="geometry" />
        </mxCell>
        <mxCell id="7VKG7t0zg39iDgbiG4sM-42" value="" style="whiteSpace=wrap;html=1;aspect=fixed;fillColor=#ffe6cc;strokeColor=#d79b00;" vertex="1" parent="1">
          <mxGeometry x="-1140" y="340" width="40" height="40" as="geometry" />
        </mxCell>
        <mxCell id="7VKG7t0zg39iDgbiG4sM-43" value="" style="whiteSpace=wrap;html=1;aspect=fixed;fillColor=#ffe6cc;strokeColor=#d79b00;" vertex="1" parent="1">
          <mxGeometry x="-1100" y="340" width="40" height="40" as="geometry" />
        </mxCell>
        <mxCell id="7VKG7t0zg39iDgbiG4sM-44" value="" style="whiteSpace=wrap;html=1;aspect=fixed;fillColor=#ffe6cc;strokeColor=#d79b00;" vertex="1" parent="1">
          <mxGeometry x="-1060" y="340" width="40" height="40" as="geometry" />
        </mxCell>
        <mxCell id="7VKG7t0zg39iDgbiG4sM-45" value="" style="whiteSpace=wrap;html=1;aspect=fixed;fillColor=#ffe6cc;strokeColor=#d79b00;" vertex="1" parent="1">
          <mxGeometry x="-1180" y="380" width="40" height="40" as="geometry" />
        </mxCell>
        <mxCell id="7VKG7t0zg39iDgbiG4sM-46" value="" style="whiteSpace=wrap;html=1;aspect=fixed;fillColor=#ffe6cc;strokeColor=#d79b00;" vertex="1" parent="1">
          <mxGeometry x="-1140" y="380" width="40" height="40" as="geometry" />
        </mxCell>
        <mxCell id="7VKG7t0zg39iDgbiG4sM-47" value="" style="whiteSpace=wrap;html=1;aspect=fixed;fillColor=#ffe6cc;strokeColor=#d79b00;" vertex="1" parent="1">
          <mxGeometry x="-1100" y="380" width="40" height="40" as="geometry" />
        </mxCell>
        <mxCell id="7VKG7t0zg39iDgbiG4sM-48" value="" style="whiteSpace=wrap;html=1;aspect=fixed;fillColor=#ffe6cc;strokeColor=#d79b00;" vertex="1" parent="1">
          <mxGeometry x="-1060" y="380" width="40" height="40" as="geometry" />
        </mxCell>
        <mxCell id="7VKG7t0zg39iDgbiG4sM-49" value="" style="whiteSpace=wrap;html=1;aspect=fixed;fillColor=#f8cecc;strokeColor=#b85450;" vertex="1" parent="1">
          <mxGeometry x="-1170" y="270" width="40" height="40" as="geometry" />
        </mxCell>
        <mxCell id="7VKG7t0zg39iDgbiG4sM-50" value="" style="whiteSpace=wrap;html=1;aspect=fixed;fillColor=#f8cecc;strokeColor=#b85450;" vertex="1" parent="1">
          <mxGeometry x="-1130" y="270" width="40" height="40" as="geometry" />
        </mxCell>
        <mxCell id="7VKG7t0zg39iDgbiG4sM-51" value="" style="whiteSpace=wrap;html=1;aspect=fixed;fillColor=#f8cecc;strokeColor=#b85450;" vertex="1" parent="1">
          <mxGeometry x="-1090" y="270" width="40" height="40" as="geometry" />
        </mxCell>
        <mxCell id="7VKG7t0zg39iDgbiG4sM-52" value="" style="whiteSpace=wrap;html=1;aspect=fixed;fillColor=#f8cecc;strokeColor=#b85450;" vertex="1" parent="1">
          <mxGeometry x="-1050" y="270" width="40" height="40" as="geometry" />
        </mxCell>
        <mxCell id="7VKG7t0zg39iDgbiG4sM-53" value="" style="whiteSpace=wrap;html=1;aspect=fixed;fillColor=#f8cecc;strokeColor=#b85450;" vertex="1" parent="1">
          <mxGeometry x="-1170" y="310" width="40" height="40" as="geometry" />
        </mxCell>
        <mxCell id="7VKG7t0zg39iDgbiG4sM-54" value="" style="whiteSpace=wrap;html=1;aspect=fixed;fillColor=#f8cecc;strokeColor=#b85450;" vertex="1" parent="1">
          <mxGeometry x="-1130" y="310" width="40" height="40" as="geometry" />
        </mxCell>
        <mxCell id="7VKG7t0zg39iDgbiG4sM-55" value="" style="whiteSpace=wrap;html=1;aspect=fixed;fillColor=#f8cecc;strokeColor=#b85450;" vertex="1" parent="1">
          <mxGeometry x="-1090" y="310" width="40" height="40" as="geometry" />
        </mxCell>
        <mxCell id="7VKG7t0zg39iDgbiG4sM-93" style="edgeStyle=orthogonalEdgeStyle;rounded=0;orthogonalLoop=1;jettySize=auto;html=1;entryX=0;entryY=0.5;entryDx=0;entryDy=0;fontSize=18;" edge="1" parent="1" source="7VKG7t0zg39iDgbiG4sM-56" target="7VKG7t0zg39iDgbiG4sM-86">
          <mxGeometry relative="1" as="geometry">
            <Array as="points">
              <mxPoint x="-990" y="350" />
              <mxPoint x="-990" y="350" />
            </Array>
          </mxGeometry>
        </mxCell>
        <mxCell id="7VKG7t0zg39iDgbiG4sM-56" value="" style="whiteSpace=wrap;html=1;aspect=fixed;fillColor=#f8cecc;strokeColor=#b85450;" vertex="1" parent="1">
          <mxGeometry x="-1050" y="310" width="40" height="40" as="geometry" />
        </mxCell>
        <mxCell id="7VKG7t0zg39iDgbiG4sM-57" value="" style="whiteSpace=wrap;html=1;aspect=fixed;fillColor=#f8cecc;strokeColor=#b85450;" vertex="1" parent="1">
          <mxGeometry x="-1170" y="350" width="40" height="40" as="geometry" />
        </mxCell>
        <mxCell id="7VKG7t0zg39iDgbiG4sM-58" value="" style="whiteSpace=wrap;html=1;aspect=fixed;fillColor=#f8cecc;strokeColor=#b85450;" vertex="1" parent="1">
          <mxGeometry x="-1130" y="350" width="40" height="40" as="geometry" />
        </mxCell>
        <mxCell id="7VKG7t0zg39iDgbiG4sM-59" value="" style="whiteSpace=wrap;html=1;aspect=fixed;fillColor=#f8cecc;strokeColor=#b85450;" vertex="1" parent="1">
          <mxGeometry x="-1090" y="350" width="40" height="40" as="geometry" />
        </mxCell>
        <mxCell id="7VKG7t0zg39iDgbiG4sM-60" value="" style="whiteSpace=wrap;html=1;aspect=fixed;fillColor=#f8cecc;strokeColor=#b85450;" vertex="1" parent="1">
          <mxGeometry x="-1050" y="350" width="40" height="40" as="geometry" />
        </mxCell>
        <mxCell id="7VKG7t0zg39iDgbiG4sM-61" value="" style="whiteSpace=wrap;html=1;aspect=fixed;fillColor=#f8cecc;strokeColor=#b85450;" vertex="1" parent="1">
          <mxGeometry x="-1170" y="390" width="40" height="40" as="geometry" />
        </mxCell>
        <mxCell id="7VKG7t0zg39iDgbiG4sM-62" value="" style="whiteSpace=wrap;html=1;aspect=fixed;fillColor=#f8cecc;strokeColor=#b85450;" vertex="1" parent="1">
          <mxGeometry x="-1130" y="390" width="40" height="40" as="geometry" />
        </mxCell>
        <mxCell id="7VKG7t0zg39iDgbiG4sM-63" value="" style="whiteSpace=wrap;html=1;aspect=fixed;fillColor=#f8cecc;strokeColor=#b85450;" vertex="1" parent="1">
          <mxGeometry x="-1090" y="390" width="40" height="40" as="geometry" />
        </mxCell>
        <mxCell id="7VKG7t0zg39iDgbiG4sM-64" value="" style="whiteSpace=wrap;html=1;aspect=fixed;fillColor=#f8cecc;strokeColor=#b85450;" vertex="1" parent="1">
          <mxGeometry x="-1050" y="390" width="40" height="40" as="geometry" />
        </mxCell>
        <mxCell id="7VKG7t0zg39iDgbiG4sM-195" style="edgeStyle=none;rounded=0;orthogonalLoop=1;jettySize=auto;html=1;entryX=0;entryY=0.5;entryDx=0;entryDy=0;fontSize=18;" edge="1" parent="1" source="7VKG7t0zg39iDgbiG4sM-65" target="7VKG7t0zg39iDgbiG4sM-95">
          <mxGeometry relative="1" as="geometry" />
        </mxCell>
        <mxCell id="7VKG7t0zg39iDgbiG4sM-196" style="edgeStyle=none;rounded=0;orthogonalLoop=1;jettySize=auto;html=1;entryX=0;entryY=0.5;entryDx=0;entryDy=0;fontSize=18;" edge="1" parent="1" source="7VKG7t0zg39iDgbiG4sM-65" target="7VKG7t0zg39iDgbiG4sM-97">
          <mxGeometry relative="1" as="geometry" />
        </mxCell>
        <mxCell id="7VKG7t0zg39iDgbiG4sM-197" style="edgeStyle=none;rounded=0;orthogonalLoop=1;jettySize=auto;html=1;fontSize=18;" edge="1" parent="1" source="7VKG7t0zg39iDgbiG4sM-65" target="7VKG7t0zg39iDgbiG4sM-98">
          <mxGeometry relative="1" as="geometry" />
        </mxCell>
        <mxCell id="7VKG7t0zg39iDgbiG4sM-198" style="edgeStyle=none;rounded=0;orthogonalLoop=1;jettySize=auto;html=1;entryX=0;entryY=0.5;entryDx=0;entryDy=0;fontSize=18;" edge="1" parent="1" source="7VKG7t0zg39iDgbiG4sM-65" target="7VKG7t0zg39iDgbiG4sM-99">
          <mxGeometry relative="1" as="geometry" />
        </mxCell>
        <mxCell id="7VKG7t0zg39iDgbiG4sM-199" style="edgeStyle=none;rounded=0;orthogonalLoop=1;jettySize=auto;html=1;entryX=0;entryY=0.5;entryDx=0;entryDy=0;fontSize=18;" edge="1" parent="1" source="7VKG7t0zg39iDgbiG4sM-65" target="7VKG7t0zg39iDgbiG4sM-100">
          <mxGeometry relative="1" as="geometry" />
        </mxCell>
        <mxCell id="7VKG7t0zg39iDgbiG4sM-200" style="edgeStyle=none;rounded=0;orthogonalLoop=1;jettySize=auto;html=1;entryX=0;entryY=0.5;entryDx=0;entryDy=0;fontSize=18;" edge="1" parent="1" source="7VKG7t0zg39iDgbiG4sM-65" target="7VKG7t0zg39iDgbiG4sM-101">
          <mxGeometry relative="1" as="geometry" />
        </mxCell>
        <mxCell id="7VKG7t0zg39iDgbiG4sM-65" value="" style="rounded=0;whiteSpace=wrap;html=1;glass=0;shadow=1;sketch=1;" vertex="1" parent="1">
          <mxGeometry x="-760" y="210" width="80" height="240" as="geometry" />
        </mxCell>
        <mxCell id="7VKG7t0zg39iDgbiG4sM-84" value="" style="rounded=0;whiteSpace=wrap;html=1;shadow=1;glass=0;sketch=1;" vertex="1" parent="1">
          <mxGeometry x="-930" y="290" width="40" height="40" as="geometry" />
        </mxCell>
        <mxCell id="7VKG7t0zg39iDgbiG4sM-85" value="" style="rounded=0;whiteSpace=wrap;html=1;shadow=1;glass=0;sketch=1;" vertex="1" parent="1">
          <mxGeometry x="-890" y="290" width="40" height="40" as="geometry" />
        </mxCell>
        <mxCell id="7VKG7t0zg39iDgbiG4sM-86" value="" style="rounded=0;whiteSpace=wrap;html=1;shadow=1;glass=0;sketch=1;" vertex="1" parent="1">
          <mxGeometry x="-930" y="330" width="40" height="40" as="geometry" />
        </mxCell>
        <mxCell id="7VKG7t0zg39iDgbiG4sM-94" style="edgeStyle=orthogonalEdgeStyle;rounded=0;orthogonalLoop=1;jettySize=auto;html=1;entryX=-0.062;entryY=0.583;entryDx=0;entryDy=0;entryPerimeter=0;fontSize=18;" edge="1" parent="1" source="7VKG7t0zg39iDgbiG4sM-87" target="7VKG7t0zg39iDgbiG4sM-65">
          <mxGeometry relative="1" as="geometry" />
        </mxCell>
        <mxCell id="7VKG7t0zg39iDgbiG4sM-87" value="" style="rounded=0;whiteSpace=wrap;html=1;shadow=1;glass=0;sketch=1;" vertex="1" parent="1">
          <mxGeometry x="-890" y="330" width="40" height="40" as="geometry" />
        </mxCell>
        <mxCell id="7VKG7t0zg39iDgbiG4sM-88" value="One-hot encoding input" style="text;html=1;strokeColor=none;fillColor=none;align=center;verticalAlign=middle;whiteSpace=wrap;rounded=0;shadow=1;glass=0;sketch=1;fontSize=18;" vertex="1" parent="1">
          <mxGeometry x="-1520" y="540" width="200" height="30" as="geometry" />
        </mxCell>
        <mxCell id="7VKG7t0zg39iDgbiG4sM-89" value="Maximum pooling layer" style="text;html=1;strokeColor=none;fillColor=none;align=center;verticalAlign=middle;whiteSpace=wrap;rounded=0;shadow=1;glass=0;sketch=1;fontSize=18;" vertex="1" parent="1">
          <mxGeometry x="-975" y="530" width="170" height="30" as="geometry" />
        </mxCell>
        <mxCell id="7VKG7t0zg39iDgbiG4sM-90" value="Batch normalization" style="text;html=1;strokeColor=none;fillColor=none;align=center;verticalAlign=middle;whiteSpace=wrap;rounded=0;shadow=1;glass=0;sketch=1;fontSize=18;" vertex="1" parent="1">
          <mxGeometry x="-810" y="530" width="170" height="30" as="geometry" />
        </mxCell>
        <mxCell id="7VKG7t0zg39iDgbiG4sM-109" style="rounded=0;orthogonalLoop=1;jettySize=auto;html=1;entryX=0;entryY=0.5;entryDx=0;entryDy=0;fontSize=18;" edge="1" parent="1" source="7VKG7t0zg39iDgbiG4sM-95" target="7VKG7t0zg39iDgbiG4sM-104">
          <mxGeometry relative="1" as="geometry" />
        </mxCell>
        <mxCell id="7VKG7t0zg39iDgbiG4sM-95" value="" style="ellipse;html=1;rounded=0;shadow=0;glass=0;sketch=0;fontSize=18;gradientColor=none;whiteSpace=wrap;" vertex="1" parent="1">
          <mxGeometry x="-560" y="160" width="40" height="40" as="geometry" />
        </mxCell>
        <mxCell id="7VKG7t0zg39iDgbiG4sM-110" style="edgeStyle=none;rounded=0;orthogonalLoop=1;jettySize=auto;html=1;entryX=0;entryY=0.5;entryDx=0;entryDy=0;fontSize=18;" edge="1" parent="1" source="7VKG7t0zg39iDgbiG4sM-97" target="7VKG7t0zg39iDgbiG4sM-102">
          <mxGeometry relative="1" as="geometry" />
        </mxCell>
        <mxCell id="7VKG7t0zg39iDgbiG4sM-112" style="edgeStyle=none;rounded=0;orthogonalLoop=1;jettySize=auto;html=1;entryX=0;entryY=0.5;entryDx=0;entryDy=0;fontSize=18;" edge="1" parent="1" source="7VKG7t0zg39iDgbiG4sM-97" target="7VKG7t0zg39iDgbiG4sM-106">
          <mxGeometry relative="1" as="geometry" />
        </mxCell>
        <mxCell id="7VKG7t0zg39iDgbiG4sM-116" style="edgeStyle=none;rounded=0;orthogonalLoop=1;jettySize=auto;html=1;entryX=0;entryY=0.5;entryDx=0;entryDy=0;fontSize=18;" edge="1" parent="1" source="7VKG7t0zg39iDgbiG4sM-97" target="7VKG7t0zg39iDgbiG4sM-103">
          <mxGeometry relative="1" as="geometry" />
        </mxCell>
        <mxCell id="7VKG7t0zg39iDgbiG4sM-97" value="" style="ellipse;html=1;rounded=0;shadow=0;glass=0;sketch=0;fontSize=18;gradientColor=none;whiteSpace=wrap;" vertex="1" parent="1">
          <mxGeometry x="-560" y="220" width="40" height="40" as="geometry" />
        </mxCell>
        <mxCell id="7VKG7t0zg39iDgbiG4sM-111" style="edgeStyle=none;rounded=0;orthogonalLoop=1;jettySize=auto;html=1;entryX=0;entryY=0.5;entryDx=0;entryDy=0;fontSize=18;" edge="1" parent="1" source="7VKG7t0zg39iDgbiG4sM-98" target="7VKG7t0zg39iDgbiG4sM-105">
          <mxGeometry relative="1" as="geometry" />
        </mxCell>
        <mxCell id="7VKG7t0zg39iDgbiG4sM-98" value="" style="ellipse;html=1;rounded=0;shadow=0;glass=0;sketch=0;fontSize=18;gradientColor=none;whiteSpace=wrap;" vertex="1" parent="1">
          <mxGeometry x="-560" y="280" width="40" height="40" as="geometry" />
        </mxCell>
        <mxCell id="7VKG7t0zg39iDgbiG4sM-114" style="edgeStyle=none;rounded=0;orthogonalLoop=1;jettySize=auto;html=1;entryX=0;entryY=0.5;entryDx=0;entryDy=0;fontSize=18;" edge="1" parent="1" source="7VKG7t0zg39iDgbiG4sM-99" target="7VKG7t0zg39iDgbiG4sM-107">
          <mxGeometry relative="1" as="geometry" />
        </mxCell>
        <mxCell id="7VKG7t0zg39iDgbiG4sM-115" style="edgeStyle=none;rounded=0;orthogonalLoop=1;jettySize=auto;html=1;entryX=0;entryY=0.5;entryDx=0;entryDy=0;fontSize=18;" edge="1" parent="1" source="7VKG7t0zg39iDgbiG4sM-99" target="7VKG7t0zg39iDgbiG4sM-104">
          <mxGeometry relative="1" as="geometry" />
        </mxCell>
        <mxCell id="7VKG7t0zg39iDgbiG4sM-99" value="" style="ellipse;html=1;rounded=0;shadow=0;glass=0;sketch=0;fontSize=18;gradientColor=none;whiteSpace=wrap;" vertex="1" parent="1">
          <mxGeometry x="-560" y="340" width="40" height="40" as="geometry" />
        </mxCell>
        <mxCell id="7VKG7t0zg39iDgbiG4sM-113" style="edgeStyle=none;rounded=0;orthogonalLoop=1;jettySize=auto;html=1;entryX=0;entryY=0.5;entryDx=0;entryDy=0;fontSize=18;" edge="1" parent="1" source="7VKG7t0zg39iDgbiG4sM-100" target="7VKG7t0zg39iDgbiG4sM-103">
          <mxGeometry relative="1" as="geometry" />
        </mxCell>
        <mxCell id="7VKG7t0zg39iDgbiG4sM-119" style="edgeStyle=none;rounded=0;orthogonalLoop=1;jettySize=auto;html=1;entryX=0;entryY=0.5;entryDx=0;entryDy=0;fontSize=18;" edge="1" parent="1" source="7VKG7t0zg39iDgbiG4sM-100" target="7VKG7t0zg39iDgbiG4sM-104">
          <mxGeometry relative="1" as="geometry" />
        </mxCell>
        <mxCell id="7VKG7t0zg39iDgbiG4sM-100" value="" style="ellipse;html=1;rounded=0;shadow=0;glass=0;sketch=0;fontSize=18;gradientColor=none;whiteSpace=wrap;" vertex="1" parent="1">
          <mxGeometry x="-560" y="400" width="40" height="40" as="geometry" />
        </mxCell>
        <mxCell id="7VKG7t0zg39iDgbiG4sM-117" style="edgeStyle=none;rounded=0;orthogonalLoop=1;jettySize=auto;html=1;entryX=0;entryY=0.5;entryDx=0;entryDy=0;fontSize=18;" edge="1" parent="1" source="7VKG7t0zg39iDgbiG4sM-101" target="7VKG7t0zg39iDgbiG4sM-106">
          <mxGeometry relative="1" as="geometry" />
        </mxCell>
        <mxCell id="7VKG7t0zg39iDgbiG4sM-118" style="edgeStyle=none;rounded=0;orthogonalLoop=1;jettySize=auto;html=1;entryX=0;entryY=0.5;entryDx=0;entryDy=0;fontSize=18;" edge="1" parent="1" source="7VKG7t0zg39iDgbiG4sM-101" target="7VKG7t0zg39iDgbiG4sM-105">
          <mxGeometry relative="1" as="geometry" />
        </mxCell>
        <mxCell id="7VKG7t0zg39iDgbiG4sM-101" value="" style="ellipse;html=1;rounded=0;shadow=0;glass=0;sketch=0;fontSize=18;gradientColor=none;whiteSpace=wrap;" vertex="1" parent="1">
          <mxGeometry x="-560" y="460" width="40" height="40" as="geometry" />
        </mxCell>
        <mxCell id="7VKG7t0zg39iDgbiG4sM-143" style="edgeStyle=none;rounded=0;orthogonalLoop=1;jettySize=auto;html=1;entryX=0;entryY=0.5;entryDx=0;entryDy=0;fontSize=18;" edge="1" parent="1" source="7VKG7t0zg39iDgbiG4sM-102" target="7VKG7t0zg39iDgbiG4sM-125">
          <mxGeometry relative="1" as="geometry" />
        </mxCell>
        <mxCell id="7VKG7t0zg39iDgbiG4sM-102" value="" style="ellipse;html=1;rounded=0;shadow=0;glass=0;sketch=0;fontSize=18;gradientColor=none;whiteSpace=wrap;" vertex="1" parent="1">
          <mxGeometry x="-480" y="160" width="40" height="40" as="geometry" />
        </mxCell>
        <mxCell id="7VKG7t0zg39iDgbiG4sM-144" style="edgeStyle=none;rounded=0;orthogonalLoop=1;jettySize=auto;html=1;entryX=0;entryY=0.5;entryDx=0;entryDy=0;fontSize=18;" edge="1" parent="1" source="7VKG7t0zg39iDgbiG4sM-103" target="7VKG7t0zg39iDgbiG4sM-130">
          <mxGeometry relative="1" as="geometry" />
        </mxCell>
        <mxCell id="7VKG7t0zg39iDgbiG4sM-147" style="edgeStyle=none;rounded=0;orthogonalLoop=1;jettySize=auto;html=1;entryX=0;entryY=0.5;entryDx=0;entryDy=0;fontSize=18;" edge="1" parent="1" source="7VKG7t0zg39iDgbiG4sM-103" target="7VKG7t0zg39iDgbiG4sM-121">
          <mxGeometry relative="1" as="geometry" />
        </mxCell>
        <mxCell id="7VKG7t0zg39iDgbiG4sM-103" value="" style="ellipse;html=1;rounded=0;shadow=0;glass=0;sketch=0;fontSize=18;gradientColor=none;whiteSpace=wrap;" vertex="1" parent="1">
          <mxGeometry x="-480" y="220" width="40" height="40" as="geometry" />
        </mxCell>
        <mxCell id="7VKG7t0zg39iDgbiG4sM-146" style="edgeStyle=none;rounded=0;orthogonalLoop=1;jettySize=auto;html=1;entryX=0;entryY=0.5;entryDx=0;entryDy=0;fontSize=18;" edge="1" parent="1" source="7VKG7t0zg39iDgbiG4sM-104" target="7VKG7t0zg39iDgbiG4sM-125">
          <mxGeometry relative="1" as="geometry" />
        </mxCell>
        <mxCell id="7VKG7t0zg39iDgbiG4sM-104" value="" style="ellipse;html=1;rounded=0;shadow=0;glass=0;sketch=0;fontSize=18;gradientColor=none;whiteSpace=wrap;" vertex="1" parent="1">
          <mxGeometry x="-480" y="280" width="40" height="40" as="geometry" />
        </mxCell>
        <mxCell id="7VKG7t0zg39iDgbiG4sM-145" style="edgeStyle=none;rounded=0;orthogonalLoop=1;jettySize=auto;html=1;entryX=0;entryY=0.5;entryDx=0;entryDy=0;fontSize=18;" edge="1" parent="1" source="7VKG7t0zg39iDgbiG4sM-105" target="7VKG7t0zg39iDgbiG4sM-127">
          <mxGeometry relative="1" as="geometry" />
        </mxCell>
        <mxCell id="7VKG7t0zg39iDgbiG4sM-150" style="edgeStyle=none;rounded=0;orthogonalLoop=1;jettySize=auto;html=1;entryX=0;entryY=0.5;entryDx=0;entryDy=0;fontSize=18;" edge="1" parent="1" source="7VKG7t0zg39iDgbiG4sM-105" target="7VKG7t0zg39iDgbiG4sM-136">
          <mxGeometry relative="1" as="geometry" />
        </mxCell>
        <mxCell id="7VKG7t0zg39iDgbiG4sM-105" value="" style="ellipse;html=1;rounded=0;shadow=0;glass=0;sketch=0;fontSize=18;gradientColor=none;whiteSpace=wrap;" vertex="1" parent="1">
          <mxGeometry x="-480" y="340" width="40" height="40" as="geometry" />
        </mxCell>
        <mxCell id="7VKG7t0zg39iDgbiG4sM-148" style="edgeStyle=none;rounded=0;orthogonalLoop=1;jettySize=auto;html=1;entryX=0;entryY=0.5;entryDx=0;entryDy=0;fontSize=18;" edge="1" parent="1" source="7VKG7t0zg39iDgbiG4sM-106" target="7VKG7t0zg39iDgbiG4sM-130">
          <mxGeometry relative="1" as="geometry" />
        </mxCell>
        <mxCell id="7VKG7t0zg39iDgbiG4sM-151" style="edgeStyle=none;rounded=0;orthogonalLoop=1;jettySize=auto;html=1;entryX=0;entryY=0.5;entryDx=0;entryDy=0;fontSize=18;" edge="1" parent="1" source="7VKG7t0zg39iDgbiG4sM-106" target="7VKG7t0zg39iDgbiG4sM-133">
          <mxGeometry relative="1" as="geometry" />
        </mxCell>
        <mxCell id="7VKG7t0zg39iDgbiG4sM-106" value="" style="ellipse;html=1;rounded=0;shadow=0;glass=0;sketch=0;fontSize=18;gradientColor=none;whiteSpace=wrap;" vertex="1" parent="1">
          <mxGeometry x="-480" y="400" width="40" height="40" as="geometry" />
        </mxCell>
        <mxCell id="7VKG7t0zg39iDgbiG4sM-149" style="edgeStyle=none;rounded=0;orthogonalLoop=1;jettySize=auto;html=1;entryX=0;entryY=0.5;entryDx=0;entryDy=0;fontSize=18;" edge="1" parent="1" source="7VKG7t0zg39iDgbiG4sM-107" target="7VKG7t0zg39iDgbiG4sM-121">
          <mxGeometry relative="1" as="geometry" />
        </mxCell>
        <mxCell id="7VKG7t0zg39iDgbiG4sM-107" value="" style="ellipse;html=1;rounded=0;shadow=0;glass=0;sketch=0;fontSize=18;gradientColor=none;whiteSpace=wrap;" vertex="1" parent="1">
          <mxGeometry x="-480" y="460" width="40" height="40" as="geometry" />
        </mxCell>
        <mxCell id="7VKG7t0zg39iDgbiG4sM-120" style="rounded=0;orthogonalLoop=1;jettySize=auto;html=1;entryX=0;entryY=0.5;entryDx=0;entryDy=0;fontSize=18;" edge="1" parent="1" source="7VKG7t0zg39iDgbiG4sM-121" target="7VKG7t0zg39iDgbiG4sM-139">
          <mxGeometry relative="1" as="geometry" />
        </mxCell>
        <mxCell id="7VKG7t0zg39iDgbiG4sM-121" value="" style="ellipse;html=1;rounded=0;shadow=0;glass=0;sketch=0;fontSize=18;gradientColor=none;whiteSpace=wrap;" vertex="1" parent="1">
          <mxGeometry x="-400" y="160" width="40" height="40" as="geometry" />
        </mxCell>
        <mxCell id="7VKG7t0zg39iDgbiG4sM-122" style="edgeStyle=none;rounded=0;orthogonalLoop=1;jettySize=auto;html=1;entryX=0;entryY=0.5;entryDx=0;entryDy=0;fontSize=18;" edge="1" parent="1" source="7VKG7t0zg39iDgbiG4sM-125" target="7VKG7t0zg39iDgbiG4sM-137">
          <mxGeometry relative="1" as="geometry" />
        </mxCell>
        <mxCell id="7VKG7t0zg39iDgbiG4sM-123" style="edgeStyle=none;rounded=0;orthogonalLoop=1;jettySize=auto;html=1;entryX=0;entryY=0.5;entryDx=0;entryDy=0;fontSize=18;" edge="1" parent="1" source="7VKG7t0zg39iDgbiG4sM-125" target="7VKG7t0zg39iDgbiG4sM-141">
          <mxGeometry relative="1" as="geometry" />
        </mxCell>
        <mxCell id="7VKG7t0zg39iDgbiG4sM-124" style="edgeStyle=none;rounded=0;orthogonalLoop=1;jettySize=auto;html=1;entryX=0;entryY=0.5;entryDx=0;entryDy=0;fontSize=18;" edge="1" parent="1" source="7VKG7t0zg39iDgbiG4sM-125" target="7VKG7t0zg39iDgbiG4sM-138">
          <mxGeometry relative="1" as="geometry" />
        </mxCell>
        <mxCell id="7VKG7t0zg39iDgbiG4sM-125" value="" style="ellipse;html=1;rounded=0;shadow=0;glass=0;sketch=0;fontSize=18;gradientColor=none;whiteSpace=wrap;" vertex="1" parent="1">
          <mxGeometry x="-400" y="220" width="40" height="40" as="geometry" />
        </mxCell>
        <mxCell id="7VKG7t0zg39iDgbiG4sM-126" style="edgeStyle=none;rounded=0;orthogonalLoop=1;jettySize=auto;html=1;entryX=0;entryY=0.5;entryDx=0;entryDy=0;fontSize=18;" edge="1" parent="1" source="7VKG7t0zg39iDgbiG4sM-127" target="7VKG7t0zg39iDgbiG4sM-140">
          <mxGeometry relative="1" as="geometry" />
        </mxCell>
        <mxCell id="7VKG7t0zg39iDgbiG4sM-127" value="" style="ellipse;html=1;rounded=0;shadow=0;glass=0;sketch=0;fontSize=18;gradientColor=none;whiteSpace=wrap;" vertex="1" parent="1">
          <mxGeometry x="-400" y="280" width="40" height="40" as="geometry" />
        </mxCell>
        <mxCell id="7VKG7t0zg39iDgbiG4sM-128" style="edgeStyle=none;rounded=0;orthogonalLoop=1;jettySize=auto;html=1;entryX=0;entryY=0.5;entryDx=0;entryDy=0;fontSize=18;" edge="1" parent="1" source="7VKG7t0zg39iDgbiG4sM-130" target="7VKG7t0zg39iDgbiG4sM-142">
          <mxGeometry relative="1" as="geometry" />
        </mxCell>
        <mxCell id="7VKG7t0zg39iDgbiG4sM-129" style="edgeStyle=none;rounded=0;orthogonalLoop=1;jettySize=auto;html=1;entryX=0;entryY=0.5;entryDx=0;entryDy=0;fontSize=18;" edge="1" parent="1" source="7VKG7t0zg39iDgbiG4sM-130" target="7VKG7t0zg39iDgbiG4sM-139">
          <mxGeometry relative="1" as="geometry" />
        </mxCell>
        <mxCell id="7VKG7t0zg39iDgbiG4sM-130" value="" style="ellipse;html=1;rounded=0;shadow=0;glass=0;sketch=0;fontSize=18;gradientColor=none;whiteSpace=wrap;" vertex="1" parent="1">
          <mxGeometry x="-400" y="340" width="40" height="40" as="geometry" />
        </mxCell>
        <mxCell id="7VKG7t0zg39iDgbiG4sM-131" style="edgeStyle=none;rounded=0;orthogonalLoop=1;jettySize=auto;html=1;entryX=0;entryY=0.5;entryDx=0;entryDy=0;fontSize=18;" edge="1" parent="1" source="7VKG7t0zg39iDgbiG4sM-133" target="7VKG7t0zg39iDgbiG4sM-138">
          <mxGeometry relative="1" as="geometry" />
        </mxCell>
        <mxCell id="7VKG7t0zg39iDgbiG4sM-132" style="edgeStyle=none;rounded=0;orthogonalLoop=1;jettySize=auto;html=1;entryX=0;entryY=0.5;entryDx=0;entryDy=0;fontSize=18;" edge="1" parent="1" source="7VKG7t0zg39iDgbiG4sM-133" target="7VKG7t0zg39iDgbiG4sM-139">
          <mxGeometry relative="1" as="geometry" />
        </mxCell>
        <mxCell id="7VKG7t0zg39iDgbiG4sM-133" value="" style="ellipse;html=1;rounded=0;shadow=0;glass=0;sketch=0;fontSize=18;gradientColor=none;whiteSpace=wrap;" vertex="1" parent="1">
          <mxGeometry x="-400" y="400" width="40" height="40" as="geometry" />
        </mxCell>
        <mxCell id="7VKG7t0zg39iDgbiG4sM-134" style="edgeStyle=none;rounded=0;orthogonalLoop=1;jettySize=auto;html=1;entryX=0;entryY=0.5;entryDx=0;entryDy=0;fontSize=18;" edge="1" parent="1" source="7VKG7t0zg39iDgbiG4sM-136" target="7VKG7t0zg39iDgbiG4sM-141">
          <mxGeometry relative="1" as="geometry" />
        </mxCell>
        <mxCell id="7VKG7t0zg39iDgbiG4sM-135" style="edgeStyle=none;rounded=0;orthogonalLoop=1;jettySize=auto;html=1;entryX=0;entryY=0.5;entryDx=0;entryDy=0;fontSize=18;" edge="1" parent="1" source="7VKG7t0zg39iDgbiG4sM-136" target="7VKG7t0zg39iDgbiG4sM-140">
          <mxGeometry relative="1" as="geometry" />
        </mxCell>
        <mxCell id="7VKG7t0zg39iDgbiG4sM-136" value="" style="ellipse;html=1;rounded=0;shadow=0;glass=0;sketch=0;fontSize=18;gradientColor=none;whiteSpace=wrap;" vertex="1" parent="1">
          <mxGeometry x="-400" y="460" width="40" height="40" as="geometry" />
        </mxCell>
        <mxCell id="7VKG7t0zg39iDgbiG4sM-153" style="edgeStyle=none;rounded=0;orthogonalLoop=1;jettySize=auto;html=1;entryX=0;entryY=0.5;entryDx=0;entryDy=0;fontSize=18;" edge="1" parent="1" source="7VKG7t0zg39iDgbiG4sM-137" target="7VKG7t0zg39iDgbiG4sM-152">
          <mxGeometry relative="1" as="geometry" />
        </mxCell>
        <mxCell id="7VKG7t0zg39iDgbiG4sM-137" value="" style="ellipse;html=1;rounded=0;shadow=0;glass=0;sketch=0;fontSize=18;gradientColor=none;whiteSpace=wrap;" vertex="1" parent="1">
          <mxGeometry x="-320" y="160" width="40" height="40" as="geometry" />
        </mxCell>
        <mxCell id="7VKG7t0zg39iDgbiG4sM-154" style="edgeStyle=none;rounded=0;orthogonalLoop=1;jettySize=auto;html=1;fontSize=18;" edge="1" parent="1" source="7VKG7t0zg39iDgbiG4sM-138">
          <mxGeometry relative="1" as="geometry">
            <mxPoint x="-240" y="339.9999999999999" as="targetPoint" />
          </mxGeometry>
        </mxCell>
        <mxCell id="7VKG7t0zg39iDgbiG4sM-138" value="" style="ellipse;html=1;rounded=0;shadow=0;glass=0;sketch=0;fontSize=18;gradientColor=none;whiteSpace=wrap;" vertex="1" parent="1">
          <mxGeometry x="-320" y="220" width="40" height="40" as="geometry" />
        </mxCell>
        <mxCell id="7VKG7t0zg39iDgbiG4sM-155" style="edgeStyle=none;rounded=0;orthogonalLoop=1;jettySize=auto;html=1;fontSize=18;" edge="1" parent="1" source="7VKG7t0zg39iDgbiG4sM-139">
          <mxGeometry relative="1" as="geometry">
            <mxPoint x="-240" y="339.9999999999999" as="targetPoint" />
          </mxGeometry>
        </mxCell>
        <mxCell id="7VKG7t0zg39iDgbiG4sM-139" value="" style="ellipse;html=1;rounded=0;shadow=0;glass=0;sketch=0;fontSize=18;gradientColor=none;whiteSpace=wrap;" vertex="1" parent="1">
          <mxGeometry x="-320" y="280" width="40" height="40" as="geometry" />
        </mxCell>
        <mxCell id="7VKG7t0zg39iDgbiG4sM-156" style="edgeStyle=none;rounded=0;orthogonalLoop=1;jettySize=auto;html=1;fontSize=18;" edge="1" parent="1" source="7VKG7t0zg39iDgbiG4sM-140">
          <mxGeometry relative="1" as="geometry">
            <mxPoint x="-240" y="339.9999999999999" as="targetPoint" />
          </mxGeometry>
        </mxCell>
        <mxCell id="7VKG7t0zg39iDgbiG4sM-140" value="" style="ellipse;html=1;rounded=0;shadow=0;glass=0;sketch=0;fontSize=18;gradientColor=none;whiteSpace=wrap;" vertex="1" parent="1">
          <mxGeometry x="-320" y="340" width="40" height="40" as="geometry" />
        </mxCell>
        <mxCell id="7VKG7t0zg39iDgbiG4sM-157" style="edgeStyle=none;rounded=0;orthogonalLoop=1;jettySize=auto;html=1;entryX=0;entryY=0.5;entryDx=0;entryDy=0;fontSize=18;" edge="1" parent="1" source="7VKG7t0zg39iDgbiG4sM-141" target="7VKG7t0zg39iDgbiG4sM-152">
          <mxGeometry relative="1" as="geometry" />
        </mxCell>
        <mxCell id="7VKG7t0zg39iDgbiG4sM-141" value="" style="ellipse;html=1;rounded=0;shadow=0;glass=0;sketch=0;fontSize=18;gradientColor=none;whiteSpace=wrap;" vertex="1" parent="1">
          <mxGeometry x="-320" y="400" width="40" height="40" as="geometry" />
        </mxCell>
        <mxCell id="7VKG7t0zg39iDgbiG4sM-158" style="edgeStyle=none;rounded=0;orthogonalLoop=1;jettySize=auto;html=1;entryX=0;entryY=0.5;entryDx=0;entryDy=0;fontSize=18;" edge="1" parent="1" source="7VKG7t0zg39iDgbiG4sM-142" target="7VKG7t0zg39iDgbiG4sM-152">
          <mxGeometry relative="1" as="geometry" />
        </mxCell>
        <mxCell id="7VKG7t0zg39iDgbiG4sM-142" value="" style="ellipse;html=1;rounded=0;shadow=0;glass=0;sketch=0;fontSize=18;gradientColor=none;whiteSpace=wrap;" vertex="1" parent="1">
          <mxGeometry x="-320" y="460" width="40" height="40" as="geometry" />
        </mxCell>
        <mxCell id="7VKG7t0zg39iDgbiG4sM-152" value="" style="ellipse;whiteSpace=wrap;html=1;rounded=0;shadow=0;glass=0;sketch=0;fontSize=18;gradientColor=none;" vertex="1" parent="1">
          <mxGeometry x="-240" y="320" width="40" height="40" as="geometry" />
        </mxCell>
        <mxCell id="7VKG7t0zg39iDgbiG4sM-159" value="Fully connected layer and dropout" style="text;html=1;strokeColor=none;fillColor=none;align=center;verticalAlign=middle;whiteSpace=wrap;rounded=0;shadow=1;glass=0;sketch=1;fontSize=18;" vertex="1" parent="1">
          <mxGeometry x="-530" y="530" width="280" height="30" as="geometry" />
        </mxCell>
        <mxCell id="7VKG7t0zg39iDgbiG4sM-160" value="" style="rounded=0;whiteSpace=wrap;html=1;shadow=0;glass=0;sketch=0;fontSize=18;fillColor=#f8cecc;strokeColor=#b85450;" vertex="1" parent="1">
          <mxGeometry x="-1540" y="260" width="40" height="40" as="geometry" />
        </mxCell>
        <mxCell id="7VKG7t0zg39iDgbiG4sM-161" value="" style="rounded=0;whiteSpace=wrap;html=1;shadow=0;glass=0;sketch=0;fontSize=18;gradientColor=none;" vertex="1" parent="1">
          <mxGeometry x="-1500" y="260" width="40" height="40" as="geometry" />
        </mxCell>
        <mxCell id="7VKG7t0zg39iDgbiG4sM-162" value="" style="rounded=0;whiteSpace=wrap;html=1;shadow=0;glass=0;sketch=0;fontSize=18;gradientColor=none;" vertex="1" parent="1">
          <mxGeometry x="-1460" y="260" width="40" height="40" as="geometry" />
        </mxCell>
        <mxCell id="7VKG7t0zg39iDgbiG4sM-163" value="" style="rounded=0;whiteSpace=wrap;html=1;shadow=0;glass=0;sketch=0;fontSize=18;fillColor=#f8cecc;strokeColor=#b85450;" vertex="1" parent="1">
          <mxGeometry x="-1420" y="260" width="40" height="40" as="geometry" />
        </mxCell>
        <mxCell id="7VKG7t0zg39iDgbiG4sM-164" value="" style="rounded=0;whiteSpace=wrap;html=1;shadow=0;glass=0;sketch=0;fontSize=18;gradientColor=none;" vertex="1" parent="1">
          <mxGeometry x="-1380" y="260" width="40" height="40" as="geometry" />
        </mxCell>
        <mxCell id="7VKG7t0zg39iDgbiG4sM-165" value="" style="rounded=0;whiteSpace=wrap;html=1;shadow=0;glass=0;sketch=0;fontSize=18;gradientColor=none;" vertex="1" parent="1">
          <mxGeometry x="-1340" y="260" width="40" height="40" as="geometry" />
        </mxCell>
        <mxCell id="7VKG7t0zg39iDgbiG4sM-168" value="" style="rounded=0;whiteSpace=wrap;html=1;shadow=0;glass=0;sketch=0;fontSize=18;gradientColor=none;" vertex="1" parent="1">
          <mxGeometry x="-1540" y="300" width="40" height="40" as="geometry" />
        </mxCell>
        <mxCell id="7VKG7t0zg39iDgbiG4sM-169" value="" style="rounded=0;whiteSpace=wrap;html=1;shadow=0;glass=0;sketch=0;fontSize=18;fillColor=#d5e8d4;strokeColor=#82b366;" vertex="1" parent="1">
          <mxGeometry x="-1500" y="300" width="40" height="40" as="geometry" />
        </mxCell>
        <mxCell id="7VKG7t0zg39iDgbiG4sM-170" value="" style="rounded=0;whiteSpace=wrap;html=1;shadow=0;glass=0;sketch=0;fontSize=18;gradientColor=none;" vertex="1" parent="1">
          <mxGeometry x="-1460" y="300" width="40" height="40" as="geometry" />
        </mxCell>
        <mxCell id="7VKG7t0zg39iDgbiG4sM-171" value="" style="rounded=0;whiteSpace=wrap;html=1;shadow=0;glass=0;sketch=0;fontSize=18;gradientColor=none;" vertex="1" parent="1">
          <mxGeometry x="-1420" y="300" width="40" height="40" as="geometry" />
        </mxCell>
        <mxCell id="7VKG7t0zg39iDgbiG4sM-172" value="" style="rounded=0;whiteSpace=wrap;html=1;shadow=0;glass=0;sketch=0;fontSize=18;gradientColor=none;" vertex="1" parent="1">
          <mxGeometry x="-1380" y="300" width="40" height="40" as="geometry" />
        </mxCell>
        <mxCell id="7VKG7t0zg39iDgbiG4sM-173" value="" style="rounded=0;whiteSpace=wrap;html=1;shadow=0;glass=0;sketch=0;fontSize=18;gradientColor=none;" vertex="1" parent="1">
          <mxGeometry x="-1340" y="300" width="40" height="40" as="geometry" />
        </mxCell>
        <mxCell id="7VKG7t0zg39iDgbiG4sM-181" value="" style="rounded=0;whiteSpace=wrap;html=1;shadow=0;glass=0;sketch=0;fontSize=18;gradientColor=none;" vertex="1" parent="1">
          <mxGeometry x="-1540" y="340" width="40" height="40" as="geometry" />
        </mxCell>
        <mxCell id="7VKG7t0zg39iDgbiG4sM-182" value="" style="rounded=0;whiteSpace=wrap;html=1;shadow=0;glass=0;sketch=0;fontSize=18;gradientColor=none;" vertex="1" parent="1">
          <mxGeometry x="-1500" y="340" width="40" height="40" as="geometry" />
        </mxCell>
        <mxCell id="7VKG7t0zg39iDgbiG4sM-183" value="" style="rounded=0;whiteSpace=wrap;html=1;shadow=0;glass=0;sketch=0;fontSize=18;fillColor=#dae8fc;strokeColor=#6c8ebf;" vertex="1" parent="1">
          <mxGeometry x="-1460" y="340" width="40" height="40" as="geometry" />
        </mxCell>
        <mxCell id="7VKG7t0zg39iDgbiG4sM-184" value="" style="rounded=0;whiteSpace=wrap;html=1;shadow=0;glass=0;sketch=0;fontSize=18;gradientColor=none;" vertex="1" parent="1">
          <mxGeometry x="-1420" y="340" width="40" height="40" as="geometry" />
        </mxCell>
        <mxCell id="7VKG7t0zg39iDgbiG4sM-185" value="" style="rounded=0;whiteSpace=wrap;html=1;shadow=0;glass=0;sketch=0;fontSize=18;gradientColor=none;" vertex="1" parent="1">
          <mxGeometry x="-1380" y="340" width="40" height="40" as="geometry" />
        </mxCell>
        <mxCell id="7VKG7t0zg39iDgbiG4sM-194" style="edgeStyle=none;rounded=0;orthogonalLoop=1;jettySize=auto;html=1;entryX=0;entryY=0;entryDx=0;entryDy=0;fontSize=18;" edge="1" parent="1" source="7VKG7t0zg39iDgbiG4sM-186" target="7VKG7t0zg39iDgbiG4sM-13">
          <mxGeometry relative="1" as="geometry" />
        </mxCell>
        <mxCell id="7VKG7t0zg39iDgbiG4sM-186" value="" style="rounded=0;whiteSpace=wrap;html=1;shadow=0;glass=0;sketch=0;fontSize=18;fillColor=#dae8fc;strokeColor=#6c8ebf;" vertex="1" parent="1">
          <mxGeometry x="-1340" y="340" width="40" height="40" as="geometry" />
        </mxCell>
        <mxCell id="7VKG7t0zg39iDgbiG4sM-187" value="" style="rounded=0;whiteSpace=wrap;html=1;shadow=0;glass=0;sketch=0;fontSize=18;gradientColor=none;" vertex="1" parent="1">
          <mxGeometry x="-1540" y="380" width="40" height="40" as="geometry" />
        </mxCell>
        <mxCell id="7VKG7t0zg39iDgbiG4sM-188" value="" style="rounded=0;whiteSpace=wrap;html=1;shadow=0;glass=0;sketch=0;fontSize=18;gradientColor=none;" vertex="1" parent="1">
          <mxGeometry x="-1500" y="380" width="40" height="40" as="geometry" />
        </mxCell>
        <mxCell id="7VKG7t0zg39iDgbiG4sM-189" value="" style="rounded=0;whiteSpace=wrap;html=1;shadow=0;glass=0;sketch=0;fontSize=18;gradientColor=none;" vertex="1" parent="1">
          <mxGeometry x="-1460" y="380" width="40" height="40" as="geometry" />
        </mxCell>
        <mxCell id="7VKG7t0zg39iDgbiG4sM-190" value="" style="rounded=0;whiteSpace=wrap;html=1;shadow=0;glass=0;sketch=0;fontSize=18;gradientColor=none;" vertex="1" parent="1">
          <mxGeometry x="-1420" y="380" width="40" height="40" as="geometry" />
        </mxCell>
        <mxCell id="7VKG7t0zg39iDgbiG4sM-191" value="" style="rounded=0;whiteSpace=wrap;html=1;shadow=0;glass=0;sketch=0;fontSize=18;fillColor=#fff2cc;strokeColor=#d6b656;" vertex="1" parent="1">
          <mxGeometry x="-1380" y="380" width="40" height="40" as="geometry" />
        </mxCell>
        <mxCell id="7VKG7t0zg39iDgbiG4sM-192" value="" style="rounded=0;whiteSpace=wrap;html=1;shadow=0;glass=0;sketch=0;fontSize=18;gradientColor=none;" vertex="1" parent="1">
          <mxGeometry x="-1340" y="380" width="40" height="40" as="geometry" />
        </mxCell>
        <mxCell id="7VKG7t0zg39iDgbiG4sM-193" value="Convolutional layers" style="text;html=1;strokeColor=none;fillColor=none;align=center;verticalAlign=middle;whiteSpace=wrap;rounded=0;shadow=1;glass=0;sketch=1;fontSize=18;" vertex="1" parent="1">
          <mxGeometry x="-1180" y="540" width="170" height="30" as="geometry" />
        </mxCell>
      </root>
    </mxGraphModel>
  </diagram>
</mxfile>
